[CENTER][CENTER][SIZE="5"][U][B]Thor 2011 TS XViD V2 - DTRG - SAFCuk009 - Team MJY[/B][/U][/SIZE][/CENTER]

 [URL=http://www.grinshare.com/][IMG]http://www.grinshare.com/img/68ZK76.jpg[/IMG][/URL] 

[CENTER][SIZE="4"]Format                           : AVI
Format/Info                      : Audio Video Interleave
File size                        : 1.28 GiB
Duration                         : 1h 48mn
Overall bit rate                 : 1 687 Kbps
Writing application              : VirtualDubMod 1.5.10.3 | www.virtualdub-fr.org || (build 2550/release)
Writing library                  : VirtualDubMod build 2550/release

Video
ID                               : 0
Format                           : MPEG-4 Visual
Format profile                   : Advanced Simple@L5
Format settings, BVOP            : Yes
Format settings, QPel            : No
Format settings, GMC             : No warppoints
Format settings, Matrix          : Custom
Codec ID                         : XVID
Codec ID/Hint                    : XviD
Duration                         : 1h 48mn
Bit rate                         : 1 549 Kbps
Width                            : 720 pixels
Height                           : 304 pixels
Display aspect ratio             : 2.35:1
Frame rate                       : 25.000 fps
Color space                      : YUV
Chroma subsampling               : 4:2:0
Bit depth                        : 8 bits
Scan type                        : Progressive
Bits/(Pixel*Frame)               : 0.283
Stream size                      : 1.18 GiB (92%)
Writing library                  : XviD 1.2.1 (UTC 2008-12-04)

Audio
ID                               : 1
Format                           : MPEG Audio
Format version                   : Version 1
Format profile                   : Layer 3
Codec ID                         : 55
Codec ID/Hint                    : MP3
Duration                         : 1h 48mn
Bit rate mode                    : Constant
Bit rate                         : 128 Kbps
Channel(s)                       : 2 channels
Sampling rate                    : 44.1 KHz
Stream size                      : 99.5 MiB (8%)
Alignment                        : Split accross interleaves
Interleave, duration             : 40 ms (1.00 video frame)
Interleave, preload duration     : 500 ms



 
http://www.imdb.com/title/tt0800369/







Users: 7.7/10 (9,440 votes) 132 reviews | Critics: 97 reviews

The powerful but arrogant warrior Thor is cast out of the fantastic realm of Asgard and sent to live amongst humans on Earth, where he soon becomes one of their finest defenders.
Director:
Kenneth Branagh
Writers:
Ashley Miller (screenplay), Zack Stentz (screenplay), and 6 more credits »
Stars:
Chris Hemsworth, Anthony Hopkins and Natalie Portman



[URL=http://www.grinshare.com/][IMG]http://www.grinshare.com/img/KHMTP8.png[/IMG][/URL] [URL=http://www.grinshare.com/][IMG]http://www.grinshare.com/img/PI5A1A.png[/IMG][/URL] [URL=http://www.grinshare.com/][IMG]http://www.grinshare.com/img/XPYZ5S.png[/IMG][/URL] [URL=http://www.grinshare.com/][IMG]http://www.grinshare.com/img/TDAINS.png[/IMG][/URL]


SOURCES:



VIDEO:Thor.2011.TRUEFRENCH.TS.MD.XviD-RESOLUTiON,Thor.iNT.CAM.XviD.Hungarian-G1-CiNEDUB (IMAGiNE) ...Thanks

AUDIO:IMAGiNE ..........................................Thanks

Way better source than V1 few mins of v1 was used though but the rest is much improved so just a few filters nothing too special ..Sample included 

Enjoy!


Greetz to Imagine ,Flawl3ss,DiLLoN,BDK,NOiR,TOXiCiNK,THC,Ez,Rx,Boobyblue,TaRiQ786,LKRG
[/SIZE][/CENTER][/CENTER]